{
  "accessors": [
    {
      "bufferView": 2,
      "componentType": 5126,
      "count": 26068,
      "max": [
        3.6440157890319824,
        2.433600425720215,
        2.16689395904541
      ],
      "min": [
        -2.8610291481018066,
        -2.329963445663452,
        -2.018162965774536
      ],
      "type": "VEC3"
    },
    {
      "bufferView": 2,
      "byteOffset": 312816,
      "componentType": 5126,
      "count": 26068,
      "max": [
        0.9996955394744873,
        0.9998875260353088,
        0.9999642372131348
      ],
      "min": [
        -0.9994418025016785,
        -0.999900221824646,
        -0.9999991655349731
      ],
      "type": "VEC3"
    },
    {
      "bufferView": 1,
      "componentType": 5126,
      "count": 26068,
      "max": [
        0.996969997882843,
        0.9993630051612854
      ],
      "min": [
        0.00026599998818710446,
        0.0002620220184326172
      ],
      "type": "VEC2"
    },
    {
      "bufferView": 0,
      "componentType": 5125,
      "count": 104994,
      "type": "SCALAR"
    }
  ],
  "asset": {
    "extras": {
      "author": "Tavernier Amaury (https://sketchfab.com/svtavernier)",
      "license": "CC-BY-NC-SA-4.0 (http://creativecommons.org/licenses/by-nc-sa/4.0/)",
      "source": "https://sketchfab.com/3d-models/old-chimpanzee-skull-3d8a3d1177424af182e0737a1afc8bb7",
      "title": "Old Chimpanzee skull"
    },
    "generator": "Sketchfab-12.94.0",
    "version": "2.0"
  },
  "bufferViews": [
    {
      "buffer": 0,
      "byteLength": 419976,
      "name": "floatBufferViews",
      "target": 34963
    },
    {
      "buffer": 0,
      "byteLength": 208544,
      "byteOffset": 419976,
      "byteStride": 8,
      "name": "floatBufferViews",
      "target": 34962
    },
    {
      "buffer": 0,
      "byteLength": 625632,
      "byteOffset": 628520,
      "byteStride": 12,
      "name": "floatBufferViews",
      "target": 34962
    }
  ],
  "buffers": [
    {
      "byteLength": 1254152,
      "uri": "scene.bin"
    }
  ],
  "images": [
    {
      "uri": "textures/chimp_vieux_baseColor.jpeg"
    }
  ],
  "materials": [
    {
      "doubleSided": true,
      "name": "chimp_vieux",
      "pbrMetallicRoughness": {
        "baseColorTexture": {
          "index": 0
        },
        "metallicFactor": 0.0
      }
    }
  ],
  "meshes": [
    {
      "name": "Object_0",
      "primitives": [
        {
          "attributes": {
            "NORMAL": 1,
            "POSITION": 0,
            "TEXCOORD_0": 2
          },
          "indices": 3,
          "material": 0,
          "mode": 4
        }
      ]
    }
  ],
  "nodes": [
    {
      "children": [
        1
      ],
      "matrix": [
        1.0,
        0.0,
        0.0,
        0.0,
        0.0,
        2.220446049250313e-16,
        -1.0,
        0.0,
        0.0,
        1.0,
        2.220446049250313e-16,
        0.0,
        0.0,
        0.0,
        0.0,
        1.0
      ],
      "name": "Sketchfab_model"
    },
    {
      "children": [
        2
      ],
      "name": "root"
    },
    {
      "children": [
        3
      ],
      "matrix": [
        1.0,
        0.0,
        0.0,
        0.0,
        0.0,
        2.220446049250313e-16,
        1.0,
        0.0,
        0.0,
        -1.0,
        2.220446049250313e-16,
        0.0,
        0.0,
        0.0,
        0.0,
        1.0
      ],
      "name": "GLTF_SceneRootNode"
    },
    {
      "children": [
        4
      ],
      "matrix": [
        -0.9620317392057611,
        -1.5222759632699256e-09,
        -0.27293759865716277,
        0.0,
        0.027803165727548478,
        0.9947980896144092,
        -0.09799869833343956,
        0.0,
        0.27151780187727087,
        -0.1018663874863638,
        -0.9570273362679944,
        0.0,
        0.12810933589935303,
        1.8854641914367676,
        0.23460650444030762,
        1.0
      ],
      "name": "chimp_vieux_1"
    },
    {
      "mesh": 0,
      "name": "Object_4"
    }
  ],
  "samplers": [
    {
      "magFilter": 9729,
      "minFilter": 9987,
      "wrapS": 10497,
      "wrapT": 10497
    }
  ],
  "scene": 0,
  "scenes": [
    {
      "name": "Sketchfab_Scene",
      "nodes": [
        0
      ]
    }
  ],
  "textures": [
    {
      "sampler": 0,
      "source": 0
    }
  ]
}
